<?xml version="1.0" encoding="utf-8"?>
<!-- Generator: Adobe Illustrator 23.1.0, SVG Export Plug-In . SVG Version: 6.00 Build 0)  -->
<svg version="1.1" xmlns="http://www.w3.org/2000/svg" xmlns:xlink="http://www.w3.org/1999/xlink" x="0px" y="0px"
	 viewBox="0 0 86 20" style="enable-background:new 0 0 86 20;" xml:space="preserve">
<style type="text/css">
	.st0{fill:#EEEEEF;}
	.st1{fill:#00B900;}
	.st2{fill:#FFFFFF;}
	.st3{fill:#1DA1F2;}
</style>
<g id="BG">
</g>
<g id="LINE_LOGO_1_">
	<g>
		<g id="FULL_COLOR_ICON_3_">
			<path class="st1" d="M84,20H2c-1.1,0-2-0.9-2-2L0,2c0-1.1,0.9-2,2-2l82,0c1.1,0,2,0.9,2,2v16C86,19.1,85.1,20,84,20z"/>
			<g id="TYPE_A_3_">
				<g>
					<path class="st2" d="M17.3,9.1c0-3.3-3.3-5.9-7.3-5.9c-4,0-7.3,2.7-7.3,5.9c0,2.9,2.6,5.4,6.1,5.8C9,15,9.4,15.1,9.4,15.3
						c0.1,0.2,0,0.5,0,0.7c0,0-0.1,0.5-0.1,0.6c0,0.2-0.1,0.7,0.6,0.4c0.8-0.3,4.2-2.5,5.7-4.2h0C16.8,11.6,17.3,10.4,17.3,9.1"/>
					<g>
						<path class="st1" d="M8.5,7.5H8c-0.1,0-0.1,0.1-0.1,0.1v3.2C7.9,10.9,7.9,11,8,11h0.5c0.1,0,0.1-0.1,0.1-0.1V7.7
							C8.7,7.6,8.6,7.5,8.5,7.5"/>
						<path class="st1" d="M12,7.5h-0.5c-0.1,0-0.1,0.1-0.1,0.1v1.9l-1.5-2c0,0,0,0,0,0c0,0,0,0,0,0c0,0,0,0,0,0c0,0,0,0,0,0
							c0,0,0,0,0,0c0,0,0,0,0,0c0,0,0,0,0,0c0,0,0,0,0,0c0,0,0,0,0,0c0,0,0,0,0,0c0,0,0,0,0,0c0,0,0,0,0,0c0,0,0,0,0,0c0,0,0,0,0,0
							c0,0,0,0,0,0c0,0,0,0,0,0c0,0,0,0,0,0c0,0,0,0,0,0c0,0,0,0,0,0H9.3c-0.1,0-0.1,0.1-0.1,0.1v3.2c0,0.1,0.1,0.1,0.1,0.1h0.5
							c0.1,0,0.1-0.1,0.1-0.1V9l1.5,2c0,0,0,0,0,0c0,0,0,0,0,0c0,0,0,0,0,0c0,0,0,0,0,0c0,0,0,0,0,0c0,0,0,0,0,0c0,0,0,0,0,0
							c0,0,0,0,0,0c0,0,0,0,0,0c0,0,0,0,0,0H12c0.1,0,0.1-0.1,0.1-0.1V7.7C12.2,7.6,12.1,7.5,12,7.5"/>
						<path class="st1" d="M7.3,10.2H5.9V7.7c0-0.1-0.1-0.1-0.1-0.1H5.2c-0.1,0-0.1,0.1-0.1,0.1v3.2v0c0,0,0,0.1,0,0.1c0,0,0,0,0,0
							c0,0,0,0,0,0c0,0,0.1,0,0.1,0h0h2c0.1,0,0.1-0.1,0.1-0.1v-0.5C7.4,10.3,7.4,10.2,7.3,10.2"/>
						<path class="st1" d="M14.9,8.3c0.1,0,0.1-0.1,0.1-0.1V7.7c0-0.1-0.1-0.1-0.1-0.1h-2h0c0,0-0.1,0-0.1,0c0,0,0,0,0,0
							c0,0,0,0,0,0c0,0,0,0.1,0,0.1v0v3.2v0c0,0,0,0.1,0,0.1c0,0,0,0,0,0c0,0,0,0,0,0c0,0,0.1,0,0.1,0h0h2c0.1,0,0.1-0.1,0.1-0.1
							v-0.5c0-0.1-0.1-0.1-0.1-0.1h-1.4V9.7h1.4c0.1,0,0.1-0.1,0.1-0.1V9c0-0.1-0.1-0.1-0.1-0.1h-1.4V8.3H14.9z"/>
					</g>
				</g>
			</g>
		</g>
		<g>
			<path class="st2" d="M22.1,11c-0.1,1.4-0.5,2.5-1.2,3.4L20,13.8c0.7-0.9,1-2.1,1-3.6V4.8h8.4v8.3c0,0.8-0.4,1.2-1.3,1.2H27
				l-0.3-1c0.5,0,0.9,0.1,1.2,0.1c0.4,0,0.5-0.2,0.5-0.6V11h-2.7v3.1h-1.1V11H22.1z M24.7,5.8h-2.5v1.6h2.5V5.8z M22.1,8.4v1.7h2.5
				V8.4H22.1z M28.4,7.4V5.8h-2.7v1.6H28.4z M28.4,10.1V8.4h-2.7v1.7H28.4z"/>
		</g>
		<g>
			<path class="st2" d="M62.3,4.8c-0.2,0.7-0.4,1.3-0.7,1.9v7.8h-1V8.5c-0.3,0.5-0.7,0.9-1.1,1.4l-0.3-1c1-1.3,1.7-2.7,2.2-4.4
				L62.3,4.8z M62.5,4.9H65V4.4h1v0.5h2.8v0.8H66v0.5h2.5v3.3h-0.2c0.4,0.5,0.7,0.9,1,1.3l-0.7,0.5c-0.1-0.1-0.2-0.3-0.4-0.5
				c-0.1,0-0.3,0-0.5,0v0.7h1.5v0.9h-1.5v1.2c0,0.6-0.3,0.9-1,0.9h-1.3l-0.2-0.9c0.5,0,0.8,0.1,1.1,0.1c0.2,0,0.3-0.1,0.3-0.3v-1
				h-3.3c0.6,0.3,1.1,0.6,1.6,1l-0.5,0.8c-0.5-0.5-1.1-0.9-1.7-1.2l0.4-0.6h-1.2v-0.9h4.7v-0.6C65.4,11,64,11,62.4,11.1l-0.1-0.8
				l2.8-0.1V9.6h-2.4V6.2H65V5.8h-2.6V4.9z M63.6,7.6h1.5V7h-1.5V7.6z M65.1,8.8V8.3h-1.5v0.6H65.1z M66,7v0.6h1.6V7H66z M67.6,8.8
				V8.3H66v0.6H67.6z M67.6,10.1l-0.3-0.4l0.2-0.1H66v0.6L67.6,10.1z"/>
			<path class="st2" d="M77.6,14.4c-0.4,0-1,0-2,0c-0.7,0-1.3-0.1-1.8-0.2c-0.4-0.1-0.8-0.4-1.2-0.8c-0.2-0.2-0.3-0.3-0.4-0.3
				c-0.2,0-0.6,0.5-1.2,1.5l-0.8-0.7c0.5-0.9,1-1.5,1.5-1.7V9.1h-1.5v-1h2.5v4.2c0.1,0,0.1,0.1,0.2,0.2c0.3,0.3,0.5,0.5,0.8,0.7
				c0.3,0.2,0.8,0.3,1.5,0.3c0.8,0,1.6,0,2.2,0c0.4,0,0.9,0,1.6,0c0.5,0,0.9,0,1.3-0.1l-0.3,1H77.6z M71.3,4.5
				c0.7,0.6,1.4,1.2,1.9,1.7L72.4,7c-0.4-0.5-1-1.1-1.8-1.8L71.3,4.5z M73.7,8.6h2.6c0.1-0.4,0.1-0.8,0.1-1.4h-2.3v-1h1.3
				c-0.3-0.5-0.6-1-0.9-1.4l0.9-0.5c0.4,0.5,0.7,1,0.9,1.6l-0.6,0.3h1.7c0.3-0.6,0.6-1.3,0.8-2l1,0.3c-0.2,0.6-0.5,1.1-0.8,1.6h1.3
				v1h-2.3c0,0.5,0,0.9-0.1,1.4h2.7v1h-2.9c-0.3,1.3-1.3,2.4-2.9,3.2L73.6,12c1.3-0.6,2.1-1.4,2.4-2.4h-2.3V8.6z M77.7,10.2
				c0.9,0.6,1.7,1.2,2.4,1.9l-0.7,0.8c-0.7-0.8-1.5-1.5-2.3-2L77.7,10.2z"/>
		</g>
		<g>
			<path class="st2" d="M32,5h1.3v7.8H38v1.2H32V5z"/>
			<path class="st2" d="M39.2,5h1.3v8.9h-1.3V5z"/>
			<path class="st2" d="M42.2,5h1.3l4.4,6.6h0V5h1.3v8.9h-1.3l-4.5-6.7h0v6.7h-1.3V5z"/>
			<path class="st2" d="M51.1,5h6.2v1.2h-4.9v2.6H57v1.2h-4.6v2.8h5.1v1.2h-6.4V5z"/>
		</g>
	</g>
</g>
</svg>
