<?xml version="1.0" encoding="utf-8"?>
<!-- Generator: Adobe Illustrator 19.1.0, SVG Export Plug-In . SVG Version: 6.00 Build 0)  -->
<svg version="1.1" id="圖層_1" xmlns="http://www.w3.org/2000/svg" xmlns:xlink="http://www.w3.org/1999/xlink" x="0px" y="0px"
	 viewBox="0 0 375 225.8" style="enable-background:new 0 0 375 225.8;" xml:space="preserve">
<style type="text/css">
	.st0{fill:#B81C25;}
	.st1{fill:none;stroke:#C9CACA;stroke-miterlimit:10;}
	.st2{fill:none;stroke:#898989;stroke-miterlimit:10;}
	.st3{fill:none;stroke:#B81C25;stroke-miterlimit:10;}
	.st4{fill:#9FA0A0;stroke:#FFFFFF;stroke-miterlimit:10;}
	.st5{fill:#B5B5B6;stroke:#FFFFFF;stroke-miterlimit:10;}
	.st6{fill:#C9CACA;stroke:#FFFFFF;stroke-miterlimit:10;}
	.st7{fill:#DCDDDD;stroke:#FFFFFF;stroke-miterlimit:10;}
	.st8{fill:#EFEFEF;stroke:#FFFFFF;stroke-miterlimit:10;}
	.st9{fill:#F7F8F8;stroke:#FFFFFF;stroke-miterlimit:10;}
	.st10{fill:#F7F8F8;}
	.st11{fill:#EFEFEF;}
	.st12{fill:#DCDDDD;}
	.st13{fill:#C9CACA;}
	.st14{fill:#B5B5B6;}
	.st15{fill:#9FA0A0;}
	.st16{fill:#898989;}
	.st17{font-family:'ArialMT';}
	.st18{font-size:16.2563px;}
	.st19{font-family:'AdobeMingStd-Light-B5pc-H';}
	.st20{fill:none;stroke:#898989;stroke-width:0.5;stroke-miterlimit:10;}
	.st21{fill:#3E3A39;}
	.st22{font-family:'MicrosoftJhengHeiRegular';}
</style>
<g>
	<text transform="matrix(0.8749 0 0 1 29.2658 205.8599)"><tspan x="0" y="0" class="st16 st17 st18">(</tspan><tspan x="5.4" y="0" class="st16 st19 st18">人次</tspan><tspan x="37.9" y="0" class="st16 st17 st18">)</tspan></text>
</g>
<g>
	<text transform="matrix(0.8749 0 0 1 73.2287 207.1748)" class="st16 st17 st18">0</text>
</g>
<g>
	<text transform="matrix(0.8749 0 0 1 133.4053 207.1748)" class="st16 st17 st18">500</text>
</g>
<g>
	<text transform="matrix(0.8749 0 0 1 198.0822 207.1748)" class="st16 st17 st18">1000</text>
</g>
<g>
	<text transform="matrix(0.8749 0 0 1 264.3813 207.1748)" class="st16 st17 st18">1500</text>
</g>
<g>
	<text transform="matrix(0.8749 0 0 1 330.8926 206.874)" class="st16 st17 st18">2000</text>
</g>
<line class="st20" x1="76.6" y1="185.9" x2="351.2" y2="185.9"/>
<line class="st20" x1="145.3" y1="185.8" x2="145.3" y2="189"/>
<line class="st20" x1="213.9" y1="185.8" x2="213.9" y2="189"/>
<line class="st20" x1="282.5" y1="185.8" x2="282.5" y2="189"/>
<line class="st20" x1="351.2" y1="185.8" x2="351.2" y2="189"/>
<g>
	<line class="st20" x1="76.6" y1="186.1" x2="76.6" y2="8.5"/>
	<g>
		<g>
			<line class="st20" x1="76.6" y1="173.4" x2="74.5" y2="173.4"/>
			<line class="st20" x1="76.6" y1="148.1" x2="74.5" y2="148.1"/>
			<line class="st20" x1="76.6" y1="122.7" x2="74.5" y2="122.7"/>
			<line class="st20" x1="76.6" y1="97.3" x2="74.5" y2="97.3"/>
			<line class="st20" x1="76.6" y1="71.9" x2="74.5" y2="71.9"/>
			<line class="st20" x1="76.6" y1="46.6" x2="74.5" y2="46.6"/>
			<line class="st20" x1="76.6" y1="21.2" x2="74.5" y2="21.2"/>
		</g>
	</g>
</g>
<rect x="76.6" y="16.7" class="st0" width="8.2" height="10.5"/>
<rect x="76.6" y="41.2" class="st0" width="19.8" height="10.5"/>
<rect x="76.6" y="66.6" class="st0" width="34.7" height="10.5"/>
<rect x="76.6" y="91.9" class="st0" width="74.7" height="10.5"/>
<rect x="76.6" y="117.2" class="st0" width="80.3" height="10.5"/>
<rect x="76.6" y="142.5" class="st0" width="116.7" height="10.5"/>
<rect x="76.6" y="167.9" class="st0" width="233.2" height="10.5"/>
<g>
	<text transform="matrix(1 0 0 1 37.9022 28.4434)" class="st21 st22 st18">遺棄</text>
</g>
<g>
	<text transform="matrix(1 0 0 1 5.3895 127.0854)" class="st21 st22 st18">身體虐待</text>
</g>
<g>
	<text transform="matrix(1 0 0 1 21.6465 102.0205)" class="st21 st22 st18">性虐待</text>
</g>
<g>
	<text transform="matrix(1 0 0 1 37.9022 152.1495)" class="st21 st22 st18">疏忽</text>
</g>
<g>
	<text transform="matrix(1 0 0 1 5.3895 177.2149)" class="st21 st22 st18">不當管教</text>
</g>
<g>
	<text transform="matrix(1 0 0 1 5.3895 51.891)" class="st21 st22 st18">目睹家暴</text>
</g>
<g>
	<text transform="matrix(1 0 0 1 5.3895 76.9555)" class="st21 st22 st18">精神虐待</text>
</g>
</svg>
