<svg id="line" xmlns="http://www.w3.org/2000/svg" width="32" height="30.489" viewBox="0 0 32 30.489">
  <path id="Path_1290" data-name="Path 1290" d="M34.583,16.577c0-7.159-7.179-12.983-16-12.983s-16,5.825-16,12.983c0,6.417,5.692,11.794,13.381,12.811.521.111,1.23.345,1.409.789a3.291,3.291,0,0,1,.051,1.446s-.187,1.129-.227,1.371c-.069.4-.322,1.581,1.385.862s9.215-5.425,12.571-9.29h0A11.543,11.543,0,0,0,34.583,16.577ZM12.319,20.837H9.141A.84.84,0,0,1,8.3,20V13.64a.839.839,0,1,1,1.678,0v5.519h2.34a.839.839,0,0,1,0,1.678ZM15.608,20a.839.839,0,1,1-1.678,0V13.64a.839.839,0,1,1,1.678,0Zm7.652,0a.839.839,0,0,1-1.51.5l-3.258-4.436V20a.839.839,0,1,1-1.678,0V13.64a.838.838,0,0,1,.572-.8.855.855,0,0,1,.267-.043.844.844,0,0,1,.671.336l3.258,4.437V13.64a.839.839,0,1,1,1.678,0ZM28.4,15.98a.839.839,0,1,1,0,1.678h-2.34v1.5H28.4a.839.839,0,1,1,0,1.678H25.225a.84.84,0,0,1-.838-.84V13.64a.84.84,0,0,1,.838-.839H28.4a.839.839,0,0,1,0,1.679h-2.34v1.5H28.4Z" transform="translate(-2.583 -3.594)" fill="#c7c7c7"/>
</svg>
