<svg xmlns="http://www.w3.org/2000/svg" width="32" height="31.138" viewBox="0 0 32 31.138">
  <path id="youtube-方" d="M31.36,4.878A5.139,5.139,0,0,0,28.48.934C26.027,0,16,0,16,0S5.973,0,3.52.934A5.139,5.139,0,0,0,.64,4.878,82.988,82.988,0,0,0,0,15.569,82.988,82.988,0,0,0,.64,26.259,5.139,5.139,0,0,0,3.52,30.2c2.453.934,12.48.934,12.48.934s10.027,0,12.48-.934a5.139,5.139,0,0,0,2.88-3.944A82.988,82.988,0,0,0,32,15.569,82.988,82.988,0,0,0,31.36,4.878ZM11.627,21.485V9.653l10.667,5.916Z" fill="#c7c7c7"/>
</svg>
