<svg id="logo聯合報" xmlns="http://www.w3.org/2000/svg" width="81" height="14.132" viewBox="0 0 81 14.132">
  <path id="Path_1" data-name="Path 1" d="M126.11,10.106c-.122-.058-2.441.363-3.055.4a9.069,9.069,0,0,1-4.721-1.067A8.841,8.841,0,0,1,115.62,7.1c-.176-.206-.455-.368-.594-.6-.241-.41-.195-1.161-.518-1.506l-.225-.137-.37-.029-.115.064c-.617.311-.874,1.277-1.3,1.771a20.673,20.673,0,0,1-3.644,3.113,5.751,5.751,0,0,1-2.976.9,5.078,5.078,0,0,1-1.414.094,6.534,6.534,0,0,1-1.709-.8c-.14-.111-.191-.3-.339-.4a.758.758,0,0,0-.741,0,1.8,1.8,0,0,0-.632,1.266,4,4,0,0,0,.185,1.442,1.861,1.861,0,0,0,.185.767c.738.977,2.755.342,3.87.135.252-.052.709-.248,1.041-.1.366.162.052,1.084-.037,1.3-.187.472-.269,1.589.216,1.826l.358.075c1.106.314,2.225-.1,3.369-.226a48.781,48.781,0,0,1,5.193-.11c1.113.116,2.051.161,3.139.342a5.719,5.719,0,0,0,2.381.165c1.157-.346.024-2.283.562-3.076l.033-.03c.367-.259.688.044,1.154.03a5.34,5.34,0,0,0,2.046-.436c.312-.186.583-.626.856-.862C125.744,11.942,126.7,10.376,126.11,10.106ZM112.273,9.04c.212-.2.6-.641.929-.705.924-.176,1.484.753,1.9,1.105l-.077.2c-.66.08-2.66.428-3.275.136l-.109-.239C111.817,9.342,112.079,9.217,112.273,9.04Zm6.361,5.245-.223.269a4.8,4.8,0,0,1-1.98-.022c-.911-.1-1.407.041-2.482,0a17.535,17.535,0,0,0-3.138.189,4.178,4.178,0,0,1-1.662-.036c-.383-.131-.194-.827.032-1a7.283,7.283,0,0,1,2.344-.3c.8-.053,1.7-.1,2.424-.079,1.451.032,3.5-.193,4.5.415A.469.469,0,0,1,118.634,14.285Zm-1.748-2.34c-1.415.094-2.853-.033-4.353.067a13.287,13.287,0,0,1-3.423.072h-.073c-.6-.346.311-.841.595-1.01l.484-.2c.226-.012.422.343.6.369.675.116,1.561-.14,2.3-.07.2.021,2.817-.23,2.828-.232.216-.085.422-.434.633-.469a5.171,5.171,0,0,1,2.209,1.378C118.783,12.223,117.538,11.9,116.886,11.945Z" transform="translate(-73.743 -3.618)" fill="#cb2529"/>
  <path id="Path_2" data-name="Path 2" d="M228.307,11.116a3.48,3.48,0,0,0-1.192.137,9.785,9.785,0,0,1-2.453.055,18.457,18.457,0,0,1-4.444-1.46,5.035,5.035,0,0,1-.954-.672l0-.327c.33-.6,1.923-.155,2.657-.314a11.407,11.407,0,0,1,1.339-.271,3.779,3.779,0,0,0,1.071-.106c.8-.391-.329-1.947-1.315-1.644-.411.128-.68.393-1.026.494-.638.186-2.383.561-1.71-.372a1.715,1.715,0,0,1,.71-.558,6.489,6.489,0,0,1,1.5-.625,6.087,6.087,0,0,0,1.145-.238,1.742,1.742,0,0,0,.747-1.077c.033-.545-1.185-.446-1.824-.369a12.416,12.416,0,0,1-2.376.144c-.778-.067-2.549-.724-3.411-.522-.194.044-.3.289-.431.394s-.438.206-.472.393a5,5,0,0,0,.054,1.128c.043.629-.221.392-.677.241a4.782,4.782,0,0,0-1.783-.055l-.2.041a5.68,5.68,0,0,1-1.5.107c-.24-.046-.3-.419-.282-.419.08-.23.066-.658.311-.753a1.784,1.784,0,0,1,.479-.034c1.1-.076,1.909-.123,2.291-.766.136-.226.063-.711-.2-.775-.843-.217-1.738.568-2.538.278-.591-.217-.2-.936-.156-1.1.221-.771-.249-.956-1.082-.9-.623.042-.531.157-.775.491-.119.16-.249,1.524-.119,1.293-.376.653-1.878-.173-2.894.058-.291.07-.518.577-.712.757s-.465.436-.269.747c.212.334.562.259,1.03.184.8-.126,2.968-.41,2.853.4-.04.3-.008.614-.349.684a19.742,19.742,0,0,1-4.08.034,7.493,7.493,0,0,0-1.547-.279,1.766,1.766,0,0,0-.865.361,3.733,3.733,0,0,0-.746,1.077.39.39,0,0,0,.319.586c.3.017.6-.2.87-.239A11.763,11.763,0,0,1,207.051,7a.546.546,0,0,1,.283.713c-.075.128-.486.2-.677.232-.867.14-2.058-.289-2.686.184a.971.971,0,0,0-.433.75l-.037.194c.051.192.373.263.677.253.5-.023,1.046-.195,1.539-.243.832-.077,1.542-.077,2.376-.08a4.121,4.121,0,0,1,1.031.022.409.409,0,0,1,.239.325.723.723,0,0,1-.114.651c-.27.291-3.243.178-3.96.224-1.146.079-1.58-.21-2.215.378-.248.219-.259.308-.034.549a1.259,1.259,0,0,0,.594.451,11.826,11.826,0,0,0,3.564-.322c.272-.042,1.892-.251,2.057-.006a.546.546,0,0,1-.036.481c-.573,1.249-7.707.208-6.4,2.189a1.782,1.782,0,0,0,.8.673c1.168.356,2.143-.272,2.886-.479,1.361-.372,3.15-.278,3.956-1.075a1.824,1.824,0,0,0,.425-1.106c.023-.241.023-.782.045-.791.174-.046.239.015.424.012,1.219-.008,2.306.381,2.931-.286l.236-.222c.531-1.23-2.9-.214-3.588-.654.076-.318-.022-.941.285-1.071.761-.34,3.019.544,3.442-.323a.406.406,0,0,0-.042-.486c-.44-.558-1.027-.3-1.626-.636a.751.751,0,0,1,.505-.683c.473-.092.889.045,1.347-.008.259-.035.648-.236.95-.172.375.075.321,1.805.272,2.2-.177,1.323-1.26,4.65-.283,5.662.455.48,1.739.454,1.5-.431-.128-.473-.3-3.521.182-3.719.273-.114.316-.043.541.03a4.081,4.081,0,0,1,1.275,1.1,10.775,10.775,0,0,0,2.384,1.6c.266.1,1.46.945,1.92,1.114A2.234,2.234,0,0,0,225,14.013a11.979,11.979,0,0,0,2.6-1.82c.2-.17.432-.315.625-.494C228.362,11.583,228.717,11.2,228.307,11.116ZM211.922,7.225a1.7,1.7,0,0,1-.668.393,11.961,11.961,0,0,1-2.851.053c-.289-.118.02-.548.152-.644a3.117,3.117,0,0,1,1.423-.3c.416-.021.89,0,1.309-.018C211.9,6.684,212.439,6.707,211.922,7.225Zm5.906.563c-.29.033-.286.045-.332-.12a14.75,14.75,0,0,1,.274-2.337,9.314,9.314,0,0,1,1.7-.18.856.856,0,0,1,.637.152c-.126.581-.6.967-.783,1.505-.074.216.058.418-.074.578A4.149,4.149,0,0,1,217.828,7.788Z" transform="translate(-147.498 -0.921)" fill="#cb2529"/>
  <path id="Path_3" data-name="Path 3" d="M21.514,9.107c.022-.308,0-.616.119-.726.23-.224.708-.054,1.271.024.3.038.518.278.941.2,1.114-.186-1.03-2.463-1.1-2.992-.118-.914,1.45-.235,1.611-.848.231-.88-.634-1.266-.943-1.691-.422-.6-1.244-2.9-2.155-2.826a1.587,1.587,0,0,0-.509.215A5.846,5.846,0,0,0,19.1,2.013c-.167.2-.446.336-.623.535-.241.269-.939,1.555-1.217,1.622h-.316C16.263,4.043,15.6.938,14.47.752a1.234,1.234,0,0,0-.7.1c-.909.436-1.607,1.519-2.433,2.111-.169.125-.286.311-.512.391a1.9,1.9,0,0,1-.935.1L9.8,3.286l.039-.07c0-.6,0-1.108-.391-1.342C8.887,1.55,8,1.791,7.294,1.845a5.785,5.785,0,0,1-.862-.111c-.477-.031-.977.122-1.53.071-.733-.068-1.618-.085-2.39-.141a1.742,1.742,0,0,0-1.534.391,4.327,4.327,0,0,0-.429.459A6.351,6.351,0,0,0,.586,4.838,12.071,12.071,0,0,1,.43,7.166,12.344,12.344,0,0,1,.038,8.609,2.632,2.632,0,0,0,.586,10.73l.2.141a1.488,1.488,0,0,0,.586.033c.445-.049,6.759-1.361,5.568,0a1.893,1.893,0,0,1-.626.427,7.2,7.2,0,0,1-1.49.208c-1.016.161-2.65.085-3.371.53l-.081.035a2.224,2.224,0,0,0-.667.567c-.16.219-.419,1.564,0,1.69a1.665,1.665,0,0,0,.667-.07,18.271,18.271,0,0,0,3.254-.706,16.841,16.841,0,0,0,2.749-.667,4.151,4.151,0,0,0,1.37-1.239,4.859,4.859,0,0,0,.823-1.764c.035-.241-.075-.542,0-.772l.081-.11a1.714,1.714,0,0,1,.823-.07c1.824.208.178,1.139-.2,1.517l-.195.286c-.431.855.682,2.2,1.293,1.617.446-.427.176-1.386.117-2.079l.035-.247a8.223,8.223,0,0,1,.121-1.023c.122-.393,1.268-.334,1.608-.315a5.094,5.094,0,0,1,1.45.139c.449.191-.451,1.3-.627,1.623-.214.391-.593,1.027-.275,1.589.417.736,1.288.25,1.413-.39a15.025,15.025,0,0,0-.08-1.937,1.093,1.093,0,0,1,.82-1.137,4.028,4.028,0,0,1,1.613.044c.827.172-.245,1.218-.313,1.483a7.369,7.369,0,0,0-.2,2.466.853.853,0,0,0,1.179.284c.672-.445.164-2.821.041-3.53-.041-.21-.309-.666-.118-.949.14-.228,1.39-.107,1.766-.107-.415.01.565-.012.663,0,.949.1.4,1.212.2,1.688-.266.63-.75,3.119.275,3.317a1.688,1.688,0,0,0,.586-.07,1.668,1.668,0,0,0,.984-.384c.686-.526.924-1.481,1.608-2.015a3.563,3.563,0,0,0,.651-.492C25.4,9.422,21.411,10.63,21.514,9.107ZM7.175,8.79c-.51.287-2.684,0-3.528.107-.269.03-.681.281-1.062.178-.331-.1-.2-.872.044-.989A7.348,7.348,0,0,1,4.743,7.8a5.06,5.06,0,0,1,2.476.388C7.343,8.353,7.4,8.664,7.175,8.79ZM7.056,6.923a4.979,4.979,0,0,1-1.172,0,16.628,16.628,0,0,0-3.14.1c-.132-.171-.166-.2-.077-.421.127-.334.338-.384.748-.46a12.754,12.754,0,0,1,1.722-.215,5.521,5.521,0,0,1,2.158.358A.416.416,0,0,1,7.056,6.923ZM7.53,4.6l-.235.28a14.626,14.626,0,0,1-2.512-.037,4.264,4.264,0,0,1-1.568.144c-.23-.069-.23-.418-.2-.636.049-.286.134-.568.4-.635A36.167,36.167,0,0,1,7.449,4C7.668,4.083,7.61,4.413,7.53,4.6Zm3.639,1.716A2.07,2.07,0,0,1,10.08,7.416C9.186,7.691,9.436,6.087,9.726,6a1.989,1.989,0,0,1,.782.068,1.183,1.183,0,0,1,.669.217Zm2.125,1.175c-.618.068-.964.061-1.062-.146-.194-.407.5-1.255.983-1.3C14.47,5.913,15.119,7.277,13.294,7.487ZM12.313,4.6c-.31-.125-.044-.459.08-.6.138-.169.316-.308.467-.46a1.562,1.562,0,0,1,.747-.423c.415-.053,1.112.648,1.021,1.024A3.868,3.868,0,0,1,12.313,4.6Zm5.215,2.077c-.222.25-.463.942-.866.988l-.113-.036a.642.642,0,0,1-.393-.208,4.847,4.847,0,0,1-.433-.988c-.123-.253-.641-.492-.589-.85.067-.423,1.149-.423,1.646-.458a3.912,3.912,0,0,1,1.376.213c.337.092.58.086.552.361S17.755,6.422,17.528,6.672ZM20.355,2.4c.676-.12,1.5.593,1.37,1.094-.062.241-.8.436-1.059.5-.63.143-1.068.084-1.214-.073C19.088,3.525,20.068,2.459,20.355,2.4Zm.961,4.362c-.046.17-.305.259-.688.3-.709.07-1.1.048-1.185-.172-.178-.431.574-1.292.755-1.313C20.534,5.535,21.44,6.311,21.316,6.765Z" transform="translate(0 -0.25)" fill="#cb2529"/>
</svg>
